<svg width="28" height="22" viewBox="0 0 28 22" fill="none" xmlns="http://www.w3.org/2000/svg">
<g clip-path="url(#clip0)">
<g filter="url(#filter0_d)">
<path d="M23.6922 12.8781V20.9268C23.6922 21.2175 23.5857 21.469 23.3725 21.6814C23.1594 21.8938 22.907 22 22.6153 22H16.1538V15.561H11.8461V22H5.38453C5.09286 22 4.84046 21.8938 4.62732 21.6814C4.41418 21.469 4.30761 21.2175 4.30761 20.9268V12.8781C4.30761 12.8669 4.31041 12.8501 4.31602 12.8277C4.32163 12.8054 4.32444 12.7886 4.32444 12.7774L13.9999 4.82927L23.6754 12.7774C23.6866 12.7998 23.6922 12.8333 23.6922 12.8781ZM27.4446 11.721L26.4014 12.9619C26.3116 13.0625 26.1938 13.124 26.048 13.1463H25.9975C25.8517 13.1463 25.7339 13.1072 25.6441 13.029L13.9999 3.35366L2.35569 13.029C2.22107 13.1184 2.08645 13.1575 1.95184 13.1463C1.80601 13.124 1.68822 13.0625 1.59847 12.9619L0.555205 11.721C0.465461 11.6093 0.426199 11.4779 0.437417 11.327C0.448634 11.1761 0.510333 11.0559 0.622513 10.9665L12.7211 0.922258C13.08 0.631608 13.5063 0.486282 13.9999 0.486282C14.4935 0.486282 14.9198 0.631608 15.2788 0.922258L19.3845 4.34299V1.07317C19.3845 0.916669 19.435 0.788112 19.536 0.687502C19.6369 0.586892 19.7659 0.536587 19.923 0.536587H23.1538C23.3108 0.536587 23.4398 0.586892 23.5408 0.687502C23.6417 0.788112 23.6922 0.916669 23.6922 1.07317V7.91464L27.3773 10.9665C27.4895 11.0559 27.5512 11.1761 27.5624 11.327C27.5736 11.4779 27.5344 11.6093 27.4446 11.721Z" fill="url(#paint0_linear)"/>
<path d="M26.0251 12.6325L27.0567 11.4055C27.0611 11.3995 27.062 11.3966 27.0623 11.3956L27.0623 11.3955C27.0628 11.394 27.0653 11.385 27.0638 11.364C27.0635 11.3604 27.0632 11.3575 27.0628 11.3552L27.0583 11.3516L27.0584 11.3516L23.3733 8.29973L23.1922 8.14976V7.91464V1.07317C23.1922 1.06094 23.1912 1.05286 23.1904 1.04822L23.1894 1.04341L23.1893 1.04319C23.1889 1.0428 23.1885 1.0423 23.1878 1.04167C23.187 1.04084 23.1864 1.04028 23.186 1.03991C23.185 1.0396 23.183 1.03904 23.1797 1.03846C23.1747 1.03759 23.1663 1.03659 23.1538 1.03659H19.923C19.9104 1.03659 19.902 1.03759 19.8971 1.03846C19.8938 1.03904 19.8918 1.03961 19.8908 1.03991C19.8904 1.04028 19.8897 1.04084 19.8889 1.04167C19.8883 1.0423 19.8878 1.0428 19.8875 1.04319L26.0251 12.6325ZM26.0251 12.6325C26.021 12.6365 26.0141 12.6417 25.9989 12.6463M26.0251 12.6325L25.9989 12.6463M25.9989 12.6463H25.9975C25.98 12.6463 25.9689 12.6449 25.9629 12.6438L14.3195 2.96909L13.9999 2.70358L13.6804 2.96909L2.06073 12.624C2.0333 12.6401 2.01525 12.6457 2.00477 12.6474C1.98688 12.6426 1.97916 12.6369 1.97479 12.6325L0.943138 11.4055C0.938701 11.3995 0.937836 11.3966 0.937535 11.3956L0.937506 11.3955C0.937052 11.394 0.934481 11.385 0.936041 11.364C0.936312 11.3604 0.936659 11.3575 0.936998 11.3552L0.941893 11.3512L13.0379 1.30907C13.3011 1.0968 13.6135 0.986282 13.9999 0.986282C14.3862 0.986282 14.6985 1.09671 14.9616 1.3088L25.9989 12.6463ZM22.6153 21.5H16.6538V15.561V15.061H16.1538H11.8461H11.3461V15.561V21.5H5.38453C5.22978 21.5 5.10299 21.4495 4.98026 21.3272C4.85755 21.205 4.80761 21.0794 4.80761 20.9268V13.0276L13.9999 5.47635L23.1922 13.0276V20.9268C23.1922 21.0794 23.1423 21.205 23.0196 21.3272C22.8968 21.4495 22.7701 21.5 22.6153 21.5Z" stroke="url(#paint1_linear)"/>
</g>
</g>
<defs>
<filter id="filter0_d" x="-3.56445" y="0.486282" width="35.1287" height="29.5137" filterUnits="userSpaceOnUse" color-interpolation-filters="sRGB">
<feFlood flood-opacity="0" result="BackgroundImageFix"/>
<feColorMatrix in="SourceAlpha" type="matrix" values="0 0 0 0 0 0 0 0 0 0 0 0 0 0 0 0 0 0 127 0"/>
<feOffset dy="4"/>
<feGaussianBlur stdDeviation="2"/>
<feColorMatrix type="matrix" values="0 0 0 0 0 0 0 0 0 0 0 0 0 0 0 0 0 0 0.25 0"/>
<feBlend mode="normal" in2="BackgroundImageFix" result="effect1_dropShadow"/>
<feBlend mode="normal" in="SourceGraphic" in2="effect1_dropShadow" result="shape"/>
</filter>
<linearGradient id="paint0_linear" x1="-52.4655" y1="-15.649" x2="19.1378" y2="66.1376" gradientUnits="userSpaceOnUse">
<stop stop-color="#5E5E5E"/>
<stop offset="1" stop-color="#202020" stop-opacity="0"/>
</linearGradient>
<linearGradient id="paint1_linear" x1="-34.1536" y1="-2.20293" x2="-0.0847028" y2="38.352" gradientUnits="userSpaceOnUse">
<stop stop-color="#898989"/>
<stop offset="1" stop-opacity="0.8"/>
</linearGradient>
<clipPath id="clip0">
<rect width="28" height="22" fill="white"/>
</clipPath>
</defs>
</svg>
