<svg width="40" height="40" viewBox="0 0 40 40" fill="none" xmlns="http://www.w3.org/2000/svg">
<path d="M28.5 27.8594C28.5 28.8921 28.2066 29.753 27.6332 30.4686C27.0625 31.1808 26.4149 31.5 25.6719 31.5H12.3281C11.5851 31.5 10.9375 31.1808 10.3668 30.4686C9.79336 29.753 9.5 28.8921 9.5 27.8594C9.5 26.9905 9.54345 26.1734 9.62967 25.4075C9.71469 24.6523 9.87244 23.8901 10.1038 23.1205C10.3327 22.3593 10.6194 21.7225 10.958 21.2026C11.2839 20.7024 11.7158 20.2917 12.2618 19.9697C12.7368 19.6896 13.2836 19.5311 13.9136 19.5041C15.3401 20.8309 17.0434 21.5 19 21.5C20.9566 21.5 22.6599 20.8309 24.0864 19.5041C24.7164 19.5311 25.2632 19.6896 25.7382 19.9697C26.2842 20.2917 26.7161 20.7024 27.042 21.2026C27.3806 21.7225 27.6673 22.3593 27.8962 23.1205C28.1276 23.8901 28.2853 24.6523 28.3703 25.4075C28.4565 26.1734 28.5 26.9905 28.5 27.8594ZM24.5 14C24.5 15.5235 23.9668 16.8105 22.8886 17.8886C21.8105 18.9668 20.5235 19.5 19 19.5C17.4765 19.5 16.1895 18.9668 15.1114 17.8886C14.0332 16.8105 13.5 15.5235 13.5 14C13.5 12.4765 14.0332 11.1895 15.1114 10.1114C16.1895 9.03319 17.4765 8.5 19 8.5C20.5235 8.5 21.8105 9.03319 22.8886 10.1114C23.9668 11.1895 24.5 12.4765 24.5 14Z" fill="url(#paint0_linear)" stroke="url(#paint1_linear)"/>
<defs>
<linearGradient id="paint0_linear" x1="-30" y1="-10" x2="47.5" y2="48.5" gradientUnits="userSpaceOnUse">
<stop stop-color="#5E5E5E"/>
<stop offset="1" stop-color="#202020" stop-opacity="0"/>
</linearGradient>
<linearGradient id="paint1_linear" x1="-16.5" y1="5" x2="21" y2="34.5" gradientUnits="userSpaceOnUse">
<stop stop-color="#898989"/>
<stop offset="1" stop-opacity="0.8"/>
</linearGradient>
</defs>
</svg>
