<svg width="22" height="22" viewBox="0 0 22 22" fill="none" xmlns="http://www.w3.org/2000/svg">
<path d="M21.058 19.3455L21.0579 19.3455L21.0546 19.3533C20.9859 19.5169 20.8329 19.7258 20.5471 19.9741C20.2646 20.2196 19.8753 20.4839 19.3689 20.7648C18.4517 21.262 17.5649 21.5 16.7031 21.5C16.4435 21.5 16.1898 21.4832 15.9417 21.4498C15.6998 21.4172 15.4243 21.3579 15.1139 21.2692C14.7881 21.1761 14.5556 21.1041 14.4094 21.0522C14.2527 20.9966 13.9675 20.8913 13.5506 20.735C13.1447 20.5828 12.8811 20.4857 12.7729 20.4493C11.7828 20.0954 10.906 19.6785 10.1395 19.2007L10.1391 19.2004C8.8565 18.4026 7.5111 17.304 6.10355 15.8964C4.69601 14.4889 3.5974 13.1435 2.79956 11.8609L2.79931 11.8605C2.3215 11.094 1.90457 10.2172 1.55066 9.2271C1.51427 9.11886 1.41722 8.85525 1.26504 8.44944C1.1087 8.03253 1.00339 7.74734 0.947776 7.59061C0.895912 7.44445 0.823862 7.21193 0.730762 6.88608C0.642079 6.57569 0.582788 6.30024 0.550218 6.05829C0.516821 5.8102 0.5 5.55646 0.5 5.29688C0.5 4.43507 0.737989 3.54828 1.23527 2.63107C1.51617 2.12469 1.78046 1.73539 2.02587 1.45294C2.27424 1.16708 2.48305 1.01412 2.64674 0.945366L2.64677 0.945432L2.65449 0.942033C2.87386 0.845513 3.19634 0.744486 3.63546 0.64354C4.07235 0.543106 4.39788 0.5 4.625 0.5C4.68126 0.5 4.72047 0.503089 4.7457 0.506693C4.7493 0.507209 4.75242 0.507707 4.75508 0.508165C4.75625 0.509294 4.75749 0.510503 4.7588 0.511795C4.78755 0.540216 4.83159 0.591932 4.89066 0.676631C5.0086 0.845758 5.15629 1.10249 5.33404 1.45798L5.34088 1.47166L5.34854 1.48489C5.45969 1.67689 5.61339 1.95345 5.81057 2.31667C6.00939 2.68291 6.19284 3.01575 6.36088 3.31508C6.52963 3.61566 6.6935 3.8985 6.8525 4.1635L6.86577 4.18562L6.88125 4.20625C6.90508 4.23802 6.98924 4.35794 7.14324 4.58097C7.28705 4.78924 7.38315 4.95046 7.44035 5.06894C7.48482 5.16106 7.49959 5.23478 7.49999 5.29436C7.49948 5.29712 7.49443 5.3304 7.45428 5.40084C7.40664 5.48442 7.32384 5.59517 7.19219 5.73375C6.91503 6.0255 6.61337 6.29314 6.2869 6.53678C5.92067 6.81009 5.58048 7.10076 5.26678 7.40896C5.10198 7.57086 4.96084 7.73501 4.85817 7.90073C4.7579 8.06257 4.67188 8.26196 4.67188 8.48438C4.67188 8.66215 4.71929 8.84264 4.78113 9.00959C4.83523 9.15567 4.88692 9.28249 4.9356 9.37986C4.98331 9.47528 5.06731 9.61776 5.17616 9.794C5.23058 9.88209 5.27198 9.94962 5.30077 9.99718C5.31523 10.0211 5.3258 10.0388 5.33295 10.051C5.33521 10.0548 5.33682 10.0576 5.33789 10.0594L5.33883 10.0613L5.34402 10.0707C6.15538 11.5333 7.08872 12.7958 8.14645 13.8536C9.20417 14.9113 10.4667 15.8446 11.9293 16.656L11.9387 16.6612L11.9406 16.6621C11.9425 16.6632 11.9452 16.6648 11.949 16.667C11.9612 16.6742 11.9789 16.6848 12.0028 16.6992C12.0504 16.728 12.1179 16.7694 12.206 16.8238C12.3822 16.9327 12.5247 17.0167 12.6201 17.0644C12.7175 17.1131 12.8443 17.1648 12.9904 17.2189C13.1574 17.2807 13.3379 17.3281 13.5156 17.3281C13.738 17.3281 13.9374 17.2421 14.0993 17.1418C14.265 17.0392 14.4291 16.898 14.591 16.7332C14.8992 16.4195 15.1899 16.0793 15.4632 15.7131C15.7069 15.3866 15.9745 15.085 16.2663 14.8078C16.4048 14.6762 16.5156 14.5934 16.5992 14.5457C16.6691 14.5058 16.7024 14.5006 16.7056 14.5C16.7652 14.5004 16.8389 14.5152 16.9311 14.5597C17.0495 14.6168 17.2108 14.713 17.419 14.8568C17.6421 15.0108 17.762 15.0949 17.7937 15.1187L17.8144 15.1342L17.8365 15.1475C18.1015 15.3065 18.3843 15.4704 18.6849 15.6391C18.9842 15.8072 19.3171 15.9906 19.6833 16.1894C20.0466 16.3866 20.3231 16.5403 20.5151 16.6515L20.5283 16.6591L20.542 16.666C20.8975 16.8437 21.1542 16.9914 21.3234 17.1093C21.4081 17.1684 21.4598 17.2125 21.4882 17.2412C21.4895 17.2425 21.4907 17.2437 21.4918 17.2449C21.4923 17.2476 21.4928 17.2507 21.4933 17.2543C21.4969 17.2795 21.5 17.3187 21.5 17.375C21.5 17.6021 21.4569 17.9277 21.3565 18.3645C21.2555 18.8037 21.1545 19.1261 21.058 19.3455ZM4.74176 0.496188C4.74037 0.495215 4.73967 0.494652 4.73967 0.494614C4.73967 0.494575 4.74037 0.495061 4.74176 0.496188ZM21.5054 17.2603C21.5053 17.2603 21.5048 17.2596 21.5038 17.2582C21.505 17.2597 21.5054 17.2604 21.5054 17.2603Z" fill="url(#paint0_linear)" stroke="url(#paint1_linear)"/>
<defs>
<linearGradient id="paint0_linear" x1="-42.9" y1="-16.5" x2="30.61" y2="50.0858" gradientUnits="userSpaceOnUse">
<stop stop-color="#5E5E5E"/>
<stop offset="1" stop-color="#202020" stop-opacity="0"/>
</linearGradient>
<linearGradient id="paint1_linear" x1="-42.9" y1="-16.5" x2="30.61" y2="50.0858" gradientUnits="userSpaceOnUse">
<stop stop-color="#5E5E5E"/>
<stop offset="1" stop-color="#202020" stop-opacity="0"/>
</linearGradient>
</defs>
</svg>
